<svg xmlns="http://www.w3.org/2000/svg" width="300" height="220" viewBox="0 0 300 220">
  <!-- SIMPLE PLACEHOLDER KRATHONG (edit colors/shapes as you like) -->
  <rect width="300" height="220" fill="none"/>
  <g transform="translate(0,0)">
    <ellipse cx="150" cy="180" rx="110" ry="22" fill="#0d2a4a" opacity="0.35"/>
    <g>
      <ellipse cx="150" cy="160" rx="120" ry="35" fill="#ef4444" />
      <rect x="40" y="140" width="220" height="30" fill="#146c43" />
      <polygon points="50,140 70,110 90,140" fill="#1f9d55"/>
      <polygon points="90,140 110,110 130,140" fill="#1f9d55"/>
      <polygon points="130,140 150,110 170,140" fill="#1f9d55"/>
      <polygon points="170,140 190,110 210,140" fill="#1f9d55"/>
      <polygon points="210,140 230,110 250,140" fill="#1f9d55"/>
      <circle cx="150" cy="120" r="18" fill="#ffd166"/>
      <rect x="146" y="70" width="8" height="45" fill="#8d5524"/>
      <polygon points="150,60 156,70 144,70" fill="#ffdd55"/>
      <path d="M150 60 C152 54, 156 54, 158 60" stroke="#ffe27a" fill="none"/>
    </g>
  </g>
</svg>